<?xml version="1.0" encoding="UTF-8"?>
<svg xmlns="http://www.w3.org/2000/svg" width="965.0002" height="1024" viewBox="0 0 965.0002 1024">
  <g id="a7ed83b8-4cd1-47bc-bfd8-2c453ef5992f" data-name="container - RED">
    <path id="ec472b5f-10eb-4c35-b6c6-7aeaeca6bfc7" data-name="back layer" d="M185,.15,915,160h79v864H166a52,52,0,0,1-52-52V754.2921L183.4662,2.4109Z" transform="translate(-29)" fill="#78082a"></path>
    <path id="edcebd71-5688-47b6-acc8-3cf181e42f17" data-name="primary facade" d="M156,0H842a52,52,0,0,1,52,52V720a0,0,0,0,1,0,0H156a0,0,0,0,1,0,0V0A0,0,0,0,1,156,0Z" fill="#e51050"></path>
    <polygon id="a38b3cd5-88e9-4c3f-8434-104ab92e3d10" data-name="flap" points="0 814 156 720 156 0 0 94 0 814" fill="#e85984"></polygon>
  </g>
  <g id="a5e39eb1-5ff4-49fe-807c-f897133bbe58" data-name="product subscript template">
    <path d="M506.02,790.9248V942.127H470.1636V844.4932l-25.2725,97.4179v.2159H409.2505L382.4663,840.6055V942.127h-32.4V790.9248h47.5205l30.4571,121.3936,31.9687-120.962-.2168-.4316Z" transform="translate(-29)" fill="#fff"></path>
    <path d="M575.1172,818.1406v33.9131H626.958v27H575.1172v35.209h56.3769V942.127H537.3164V790.9248h94.1777v27.2158Z" transform="translate(-29)" fill="#fff"></path>
    <path d="M770.25,834.5566v14.6895c0,28.2959-23.9766,44.4961-59.4014,44.4961h-15.12V942.127H657.9277V790.9248h56.377C748.2178,790.9248,770.25,806.6934,770.25,834.5566Zm-37.8008,2.16c0-12.96-8.208-19.0078-20.9521-19.0078H695.7285v49.249h13.1758c14.2568,0,23.5449-5.833,23.5449-20.52Z" transform="translate(-29)" fill="#fff"></path>
  </g>
  <g id="a78b5df9-4bbb-497d-b185-94cf03f2d2cd" data-name="product initial template">
    <path d="M611.292,472.916H491.5908l-22.23,87.211H370.1787l114.002-399.0049H616.9922L737.2637,560.127H635.8018ZM550.3008,226.6729l-40.47,172.142h82.08Z" transform="translate(-29)" fill="#fff"></path>
  </g>
</svg>
